<svg xmlns="http://www.w3.org/2000/svg" width="49" height="49" viewBox="0 0 49 49">
    <g fill="#FFF" fill-rule="evenodd">
        <path fill-rule="nonzero" d="M49.022 16.719c-2.062-1.795-5.013-3.819-7.476-4.74l4.189-.584C41.333 5.443 34.328 1.832 26.807 1.7 13.64 1.47 2.747 11.78 2.522 24.685c-.225 12.906 10.304 23.59 23.468 23.819 9.564.167 18.279-5.25 22.2-13.799l.553.244c-4.02 8.764-12.956 14.319-22.763 14.147-13.501-.235-24.295-11.19-24.064-24.423C2.146 11.44 13.319.868 26.818 1.103 34.566 1.24 41.78 4.98 46.29 11.136l2.892-3.139c-.593 2.517-.53 6.045-.161 8.723z" transform="translate(-1 -.585)"/>
    </g>
</svg>
