<svg xmlns="http://www.w3.org/2000/svg" width="48" height="49" viewBox="0 0 48 49">
    <g fill="#FFF" fill-rule="evenodd">
        <path fill-rule="nonzero" d="M2.084 16.72c2.123-1.722 5.143-3.641 7.637-4.476l-4.166-.73c4.607-5.795 11.733-9.16 19.254-9.028 13.167.23 23.693 10.914 23.468 23.819-.225 12.905-11.12 23.214-24.285 22.985-9.563-.167-18.084-5.884-21.705-14.566l-.561.225c3.713 8.9 12.448 14.762 22.256 14.933 13.5.236 24.67-10.336 24.902-23.569.23-13.233-10.566-24.188-24.065-24.424-7.747-.135-15.09 3.352-19.812 9.346l-2.78-3.238c.505 2.537.318 6.06-.143 8.723z" transform="translate(-1 -1.585)"/>
    </g>
</svg>
