<svg xmlns="http://www.w3.org/2000/svg" width="16" height="17" fill="none" viewBox="0 0 16 17">
    <g clip-path="url(#clip0)">
        <path fill="#200F42" d="M13.226 6.057L5.92.537C5.51.223 5.024.04 4.52.004 4.014-.031 3.51.085 3.065.34c-.447.258-.819.64-1.077 1.105-.258.465-.392.995-.389 1.535v11.04c-.004.54.13 1.07.389 1.536.258.465.63.846 1.077 1.104.445.255.949.372 1.453.337.505-.034.99-.219 1.401-.532l7.306-5.52c.363-.28.66-.647.863-1.072.204-.425.31-.895.31-1.372 0-.477-.106-.947-.31-1.372-.204-.425-.5-.792-.863-1.072z"/>
    </g>
    <defs>
        <clipPath id="clip0">
            <path fill="#fff" d="M0 0H16V17H0z"/>
        </clipPath>
    </defs>
</svg>
